<?xml version="1.0" encoding="UTF-8" standalone="no"?>
<!-- Created with Inkscape (http://www.inkscape.org/) -->

<svg
   width="164.48126mm"
   height="198.4375mm"
   viewBox="0 0 164.48126 198.4375"
   version="1.1"
   id="svg5"
   xml:space="preserve"
   inkscape:version="1.2 (dc2aeda, 2022-05-15)"
   sodipodi:docname="Logo EÌvry FC.svg"
   xmlns:inkscape="http://www.inkscape.org/namespaces/inkscape"
   xmlns:sodipodi="http://sodipodi.sourceforge.net/DTD/sodipodi-0.dtd"
   xmlns="http://www.w3.org/2000/svg"
   xmlns:svg="http://www.w3.org/2000/svg"><sodipodi:namedview
     id="namedview7"
     pagecolor="#ffffff"
     bordercolor="#666666"
     borderopacity="1.0"
     inkscape:showpageshadow="2"
     inkscape:pageopacity="0.0"
     inkscape:pagecheckerboard="0"
     inkscape:deskcolor="#d1d1d1"
     inkscape:document-units="mm"
     showgrid="false"
     inkscape:zoom="0.2973261"
     inkscape:cx="433.86706"
     inkscape:cy="497.76996"
     inkscape:window-width="1920"
     inkscape:window-height="1080"
     inkscape:window-x="0"
     inkscape:window-y="0"
     inkscape:window-maximized="0"
     inkscape:current-layer="layer1" /><defs
     id="defs2"><filter
       inkscape:collect="always"
       style="color-interpolation-filters:sRGB"
       id="filter8440"
       x="-0.016652864"
       y="-0.07130458"
       width="1.0333057"
       height="1.1426092"><feGaussianBlur
         inkscape:collect="always"
         stdDeviation="0.82969304"
         id="feGaussianBlur8442" /></filter><filter
       inkscape:collect="always"
       style="color-interpolation-filters:sRGB"
       id="filter9190"
       x="-0.019357435"
       y="-0.0446143"
       width="1.0387149"
       height="1.0892286"><feGaussianBlur
         inkscape:collect="always"
         stdDeviation="0.36048427"
         id="feGaussianBlur9192" /></filter><filter
       inkscape:collect="always"
       style="color-interpolation-filters:sRGB"
       id="filter9980"
       x="-0.017827554"
       y="-0.055613851"
       width="1.0356551"
       height="1.1112277"><feGaussianBlur
         inkscape:collect="always"
         stdDeviation="0.22234717"
         id="feGaussianBlur9982" /></filter><filter
       inkscape:collect="always"
       style="color-interpolation-filters:sRGB"
       id="filter11711"
       x="-0.063569621"
       y="-0.35871431"
       width="1.1271392"
       height="1.7174286"><feGaussianBlur
         inkscape:collect="always"
         stdDeviation="0.98750929"
         id="feGaussianBlur11713" /></filter></defs><g
     inkscape:label="Calque 1"
     inkscape:groupmode="layer"
     id="layer1"
     transform="translate(17.603977,-8.0383124)"><g
       id="g8387"
       transform="matrix(1.0112463,0,0,1.0112463,0.19797901,-0.090401)"><path
         id="path5460"
         style="fill:#000000;stroke:none;stroke-width:0.05;stroke-linecap:butt;stroke-linejoin:miter;stroke-dasharray:none;stroke-opacity:1"
         d="M 36.283646,8.0426844 C 35.628372,8.0994303 35.006288,8.7088438 33.87139,9.8994186 15.36972,26.660303 1.5815556,31.537122 -16.590646,36.144328 c -1.217959,0.303235 -1.038196,0.589907 -0.947746,2.358513 0.537499,16.059571 2.519874,32.537854 5.086511,47.75109 3.1361571,18.588969 8.2226145,37.124099 13.08498966,48.503499 4.36511564,10.21566 11.84326534,21.40825 18.58387834,29.92479 12.333574,15.58307 27.502391,28.32743 41.862561,38.13669 0.930234,0.63544 2.080547,1.44907 2.642733,1.45004 0.562186,-9.7e-4 1.711982,-0.8146 2.642216,-1.45004 14.360171,-9.80926 29.528987,-22.55362 41.862563,-38.13669 6.74061,-8.51654 14.21876,-19.70913 18.58388,-29.92479 4.86237,-11.3794 9.94883,-29.91453 13.08499,-48.503499 2.56663,-15.213236 4.54901,-31.691519 5.08651,-47.75109 0.0905,-1.768606 0.27021,-2.055278 -0.94775,-2.358513 C 125.86249,31.537122 112.07432,26.660303 93.572655,9.8994186 91.302859,7.5182691 91.083845,7.4620723 88.549706,9.5020268 80.193672,14.794935 71.908276,17.4465 63.722281,17.38785 55.536286,17.4465 47.250374,14.794935 38.894339,9.5020268 37.62727,8.4820496 36.93892,7.9859384 36.283646,8.0426844 Z" /><path
         id="path5431"
         style="fill:#ffffff;stroke:none;stroke-width:0.05;stroke-linecap:butt;stroke-linejoin:miter;stroke-dasharray:none;stroke-opacity:1"
         d="M 36.524975,9.2586308 C 16.371852,27.963551 3.5082753,32.397349 -16.090935,37.30033 c 0.32637,16.608298 2.202605,32.824351 4.862752,48.591866 3.136147,18.588974 8.0836048,36.846084 12.94598,48.225484 4.3651156,10.21566 11.537341,20.79639 18.277954,29.31294 13.132529,16.59252 28.543553,29.57821 43.72653,39.65029 15.182977,-10.07208 30.593484,-23.05777 43.726009,-39.65029 6.74062,-8.51655 13.91284,-19.09728 18.27796,-29.31294 4.86237,-11.3794 9.80983,-29.63651 12.94598,-48.225484 2.66015,-15.767515 4.53638,-31.983568 4.86275,-48.591866 C 123.93577,32.397349 111.07219,27.963551 90.919071,9.2586308 82.070073,15.289707 72.479474,19.009152 63.722281,18.946412 54.965088,19.009152 45.373972,15.289707 36.524975,9.2586308 Z" /><path
         id="path5502"
         style="fill:#1b09bf;fill-opacity:1;stroke:none;stroke-width:0.05;stroke-linecap:butt;stroke-linejoin:miter;stroke-dasharray:none;stroke-opacity:1"
         d="m 36.524975,10.71694 c -14.254029,14.9295 -32.6662557,23.367979 -51.557577,27.641723 1.340389,34.536759 8.604628,72.512317 17.7725588,95.130107 1.5554311,3.83735 3.5564443,7.57874 5.8296183,11.13886 1.9494589,-12.69542 6.1789869,-20.54024 11.7455359,-27.7673 7.437974,-9.65672 18.03921,-16.84815 29.864844,-20.468 0.693754,-0.212359 1.166713,0.0139 0.742074,0.779798 -0.196782,0.354927 -0.878871,1.091433 -1.626258,1.39423 -12.720388,5.153552 -24.488977,17.666552 -27.963667,27.422102 -4.605389,12.93011 -5.74132,30.07237 5.741645,39.38295 12.363809,10.00298 25.718599,14.75142 36.648532,14.75534 L 69.013948,100.06601 63.722281,20.004745 C 54.965088,20.067485 45.373972,16.748016 36.524975,10.71694 Z"
         sodipodi:nodetypes="ccscsssssccccc" /><path
         style="fill:#c2001a;fill-opacity:1;stroke:none;stroke-width:0.05;stroke-linecap:butt;stroke-linejoin:miter;stroke-dasharray:none;stroke-opacity:1"
         d="m 63.722025,20.004798 c 8.757202,0.06274 18.348286,-3.256998 27.197292,-9.28808 14.254043,14.929515 32.665843,23.368022 51.557183,27.641771 -1.34039,34.536793 -8.60462,72.512331 -17.77256,95.130151 -4.54146,11.20407 -12.82153,21.63056 -20.87363,28.91968 -13.289856,12.03057 -28.150134,17.71423 -40.108285,17.71852 z"
         id="path5427"
         sodipodi:nodetypes="cccsscc" /></g><g
       id="g11821"
       transform="matrix(1.0112463,0,0,1.0112463,0.19797901,-0.090401)"><g
         id="g10059"><g
           id="g8434"
           style="mix-blend-mode:normal;fill:#000000;filter:url(#filter8440)"
           transform="translate(2.1166667,1.0583333)"><path
             d="m 5.3247035,38.734147 c 0.6559843,0.09129 1.4525366,0.182588 2.0616593,0.365176 1.0776884,0.365176 1.1714005,0.775999 1.2651125,2.008468 0.140568,1.597645 0.140568,5.340699 0.140568,8.946812 0,4.5647 0,9.311988 -0.140568,11.822573 -0.046867,1.597645 -0.3748482,2.191056 -1.3119685,2.464938 -0.6559788,0.182588 -1.7336671,0.319529 -3.0924862,0.45647 -0.093712,0.09129 -0.093712,0.684705 0,0.821646 2.4833635,0 5.2010069,-0.136941 7.6375144,-0.136941 3.654758,0 7.965501,0.228235 12.3231,0.228235 2.014809,0 2.295939,-0.136941 2.577076,-0.684705 0.702839,-1.415057 1.686815,-5.797169 1.780528,-6.481874 -0.140568,-0.136941 -0.655984,-0.273882 -0.796552,-0.228235 -0.702841,1.734586 -1.686812,3.65176 -2.670788,4.610347 -0.843408,0.821646 -1.265107,1.049881 -4.263887,1.049881 -2.014803,0 -4.029612,-0.09129 -4.91987,-0.228235 -0.655985,-0.09129 -0.983976,-0.821646 -0.983976,-1.506351 V 52.83907 c 0,-0.09129 0.09371,-0.365176 0.281135,-0.365176 1.358825,0 5.669567,0 6.466115,0.09129 1.124543,0.136941 1.593103,0.91294 1.827384,1.597645 0.140568,0.547764 0.140568,0.365176 0.421698,1.688939 0.09371,0.04565 0.749697,0.04565 0.843409,-0.04565 -0.04687,-1.460704 -0.140568,-3.149643 -0.140568,-4.290818 0,-1.643292 0.187423,-3.012702 0.23428,-4.153877 -0.09371,-0.09129 -0.70284,-0.09129 -0.843408,0 -0.09371,0.547764 -0.140569,0.821646 -0.281131,1.278116 -0.421705,1.415057 -0.937121,1.962821 -2.014809,2.008468 -1.405675,0.09129 -5.294713,0.04565 -6.559826,0.04565 -0.04687,0 -0.234279,-0.136941 -0.234279,-0.319529 v -9.951046 c 0,-0.182588 0.234279,-0.684705 0.46856,-0.730352 0.796551,-0.136941 5.435286,-0.09129 6.325545,0.04565 0.70284,0.09129 1.265113,0.365176 1.686817,1.095528 0.421704,0.684705 0.843403,2.008468 1.077683,3.834348 0.140568,0.04565 0.655984,0.04565 0.843409,-0.09129 0.140567,-2.28235 0.46856,-5.340699 0.796551,-6.573168 0,-0.04565 -0.04687,-0.09129 -0.09371,-0.136941 -1.499392,0.228235 -3.842187,0.228235 -5.622711,0.228235 h -8.574629 c -2.2490832,0 -5.2010069,-0.136941 -6.5129754,-0.136941 -0.046867,0.09129 -0.093712,0.639058 0,0.775999 z"
             style="font-weight:normal;font-size:86.1798px;line-height:1.25;font-family:'Arno Pro';-inkscape-font-specification:'Arno Pro';letter-spacing:10px;white-space:pre;fill:#000000;stroke-width:0.53664"
             id="path8426" /><path
             d="m 29.319226,38.734147 c 0.994094,0.136941 1.372798,0.228235 1.988192,0.410823 1.467473,0.45647 2.03553,1.780233 3.266319,4.610347 1.467473,3.240937 4.071059,10.087987 6.485293,16.159038 0.94676,2.28235 1.514811,4.062583 2.130206,5.797169 0.804747,-0.09129 2.224882,-0.09129 3.076966,0 0.426043,-1.323763 1.230784,-3.560466 2.414234,-6.573168 2.177545,-5.47764 5.491196,-13.283277 6.721984,-16.569861 0.757409,-1.962821 1.420136,-2.875761 2.650925,-3.377878 0.426042,-0.182588 0.946755,-0.365176 1.988191,-0.45647 0.09467,-0.136941 0.09467,-0.684705 -0.04735,-0.775999 -0.852085,0 -2.130205,0.136941 -4.733792,0.136941 -2.556248,0 -4.449764,-0.182588 -5.112496,-0.182588 -0.09468,0.04565 -0.189352,0.684705 -0.142014,0.821646 1.136113,0.136941 2.130206,0.319529 2.7456,0.547764 1.088775,0.410823 1.372798,1.095528 0.804747,2.830114 -0.852085,2.830114 -4.875806,13.328924 -6.059257,15.885156 h -0.189352 c -0.189353,-0.502117 -6.153928,-14.652687 -7.05335,-17.254566 -0.189352,-0.547764 -0.189352,-0.91294 0.04735,-1.186822 0.284028,-0.319529 0.946761,-0.547764 2.461572,-0.821646 0.09467,-0.09129 0.09467,-0.684705 0.04735,-0.775999 -0.946755,0 -3.692355,0.136941 -6.485294,0.136941 -2.414234,0 -5.443862,-0.136941 -6.911335,-0.136941 -0.09467,0.04565 -0.189353,0.547764 -0.09467,0.775999 z"
             style="font-weight:normal;font-size:86.1798px;line-height:1.25;font-family:'Arno Pro';-inkscape-font-specification:'Arno Pro';letter-spacing:10px;white-space:pre;fill:#000000;stroke-width:0.539393"
             id="path8428" /><path
             d="m 70.469482,38.734147 c 0.684707,0.04565 1.369413,0.228235 1.917178,0.319529 0.86729,0.182588 1.278114,0.91294 1.323761,2.373644 0.09129,2.464938 0.09129,4.792935 0.09129,9.1294 0,2.784467 -0.04566,10.179281 -0.136941,11.548691 -0.09129,1.688939 -0.365177,2.236703 -1.323761,2.464938 -0.502118,0.136941 -0.776,0.136941 -1.688943,0.273882 -0.136941,0.09129 -0.09129,0.639058 0,0.775999 0.547766,0 2.145409,-0.136941 6.116702,-0.136941 3.332228,0 5.158107,0.136941 6.436226,0.136941 0.136941,-0.182588 0.182588,-0.684705 0,-0.821646 l -2.054111,-0.319529 c -1.09553,-0.228235 -1.323766,-0.593411 -1.41506,-2.373644 -0.04566,-2.510585 -0.09129,-6.253639 -0.09129,-9.1294 0,-0.09129 0.09129,-0.273882 0.182588,-0.273882 h 0.776001 c 0.684707,0 1.095525,0.502117 1.369408,1.004234 1.41506,2.419291 4.153881,7.623049 5.888466,9.631517 0.273882,0.410823 1.186819,1.36941 2.099761,1.734586 1.871526,0.775999 5.934108,0.867293 8.718579,0.547764 0.0913,-0.182588 0.18258,-0.639058 0.13694,-0.821646 -2.054116,-0.182588 -2.191057,-0.273882 -3.834348,-1.82588 -2.556232,-2.373644 -6.892697,-9.768458 -7.62305,-11.183515 -0.04566,-0.09129 -0.04566,-0.273882 0.04566,-0.319529 2.92141,-1.095528 5.295054,-3.423525 5.295054,-6.84705 0,-4.290818 -2.738821,-6.618815 -8.033875,-6.618815 -4.108228,0 -6.344931,0.09129 -8.353399,0.09129 -1.597643,0 -4.747288,-0.136941 -5.842818,-0.136941 -0.0913,0.04565 -0.0913,0.684705 0,0.775999 z m 10.590107,0.45647 c 3.788699,0 5.705872,3.19529 5.705872,6.938344 0,3.058349 -0.730348,4.245171 -1.780232,4.792935 -0.958589,0.502117 -2.967056,0.684705 -5.066818,0.502117 -0.09129,0 -0.273882,-0.09129 -0.273882,-0.228235 0,-9.357635 0.04566,-10.635751 0.136941,-11.137868 0,-0.182588 0.09129,-0.593411 0.273883,-0.684705 0.502118,-0.182588 0.821648,-0.182588 1.004236,-0.182588 z"
             style="font-weight:normal;font-size:86.1798px;line-height:1.25;font-family:'Arno Pro';-inkscape-font-specification:'Arno Pro';letter-spacing:10px;white-space:pre;fill:#000000;stroke-width:0.529672"
             id="path8430" /><path
             d="m 96.459512,38.734147 c 0.273883,0 0.547766,0.04565 1.186825,0.182588 1.278114,0.319529 1.734585,0.365176 3.697413,3.606113 1.59764,2.601879 4.15387,7.486108 5.20376,9.677164 0.41082,0.867293 0.50211,1.460704 0.50211,2.191056 0,1.871527 0,5.203758 -0.0913,7.349167 0,1.232469 -0.0457,2.419291 -1.27812,2.693173 -0.59341,0.136941 -1.18682,0.228235 -2.328,0.365176 -0.0913,0.04565 -0.13694,0.775999 0,0.821646 1.23248,0 2.78447,-0.136941 6.43623,-0.136941 2.64753,0 5.15811,0.136941 6.98399,0.136941 0.0913,-0.09129 0.13694,-0.730352 0.0913,-0.821646 -1.04987,-0.136941 -1.64329,-0.228235 -2.2367,-0.365176 -1.27811,-0.319529 -1.4607,-1.278116 -1.50635,-2.601879 -0.0457,-2.28235 -0.13694,-5.751522 -0.13694,-7.896931 0,-0.91294 0.13694,-1.36941 0.50212,-2.099762 0.95858,-2.008468 3.74305,-7.029638 5.29505,-9.722811 1.23247,-2.099762 2.09976,-2.693173 3.28658,-3.058349 0.41083,-0.136941 1.00424,-0.228235 1.59765,-0.319529 0.13694,-0.136941 0.0913,-0.730352 0,-0.775999 -1.04988,0 -2.60188,0.136941 -4.29082,0.136941 -1.64329,0 -4.24517,-0.136941 -4.74729,-0.136941 -0.0913,0.09129 -0.13694,0.593411 -0.0913,0.775999 1.00423,0.182588 1.36941,0.228235 2.00847,0.410823 0.95858,0.273882 1.32376,0.684705 0.91294,1.734586 -0.91294,2.28235 -3.56047,7.531755 -4.92988,9.814105 -0.0913,0.04565 -0.18259,0.04565 -0.22824,0 -0.63905,-1.141175 -4.42775,-8.307754 -5.38634,-10.407516 -0.27388,-0.593411 -0.13694,-1.004234 0.45647,-1.186822 0.36517,-0.09129 1.14118,-0.319529 1.552,-0.365176 0.0913,-0.136941 0.0457,-0.684705 -0.0457,-0.775999 -0.776,0.04565 -3.28658,0.136941 -6.25364,0.136941 -2.37364,0 -4.5647,-0.136941 -6.162348,-0.136941 -0.09129,0.09129 -0.136942,0.639058 0,0.775999 z"
             style="font-weight:normal;font-size:86.1798px;line-height:1.25;font-family:'Arno Pro';-inkscape-font-specification:'Arno Pro';letter-spacing:10px;white-space:pre;fill:#000000;stroke-width:0.529672"
             id="path8432" /></g><g
           id="g8424"
           style="fill:#ffffff"><path
             d="m 5.3247035,38.734147 c 0.6559843,0.09129 1.4525366,0.182588 2.0616593,0.365176 1.0776884,0.365176 1.1714005,0.775999 1.2651125,2.008468 0.140568,1.597645 0.140568,5.340699 0.140568,8.946812 0,4.5647 0,9.311988 -0.140568,11.822573 -0.046867,1.597645 -0.3748482,2.191056 -1.3119685,2.464938 -0.6559788,0.182588 -1.7336671,0.319529 -3.0924862,0.45647 -0.093712,0.09129 -0.093712,0.684705 0,0.821646 2.4833635,0 5.2010069,-0.136941 7.6375144,-0.136941 3.654758,0 7.965501,0.228235 12.3231,0.228235 2.014809,0 2.295939,-0.136941 2.577076,-0.684705 0.702839,-1.415057 1.686815,-5.797169 1.780528,-6.481874 -0.140568,-0.136941 -0.655984,-0.273882 -0.796552,-0.228235 -0.702841,1.734586 -1.686812,3.65176 -2.670788,4.610347 -0.843408,0.821646 -1.265107,1.049881 -4.263887,1.049881 -2.014803,0 -4.029612,-0.09129 -4.91987,-0.228235 -0.655985,-0.09129 -0.983976,-0.821646 -0.983976,-1.506351 V 52.83907 c 0,-0.09129 0.09371,-0.365176 0.281135,-0.365176 1.358825,0 5.669567,0 6.466115,0.09129 1.124543,0.136941 1.593103,0.91294 1.827384,1.597645 0.140568,0.547764 0.140568,0.365176 0.421698,1.688939 0.09371,0.04565 0.749697,0.04565 0.843409,-0.04565 -0.04687,-1.460704 -0.140568,-3.149643 -0.140568,-4.290818 0,-1.643292 0.187423,-3.012702 0.23428,-4.153877 -0.09371,-0.09129 -0.70284,-0.09129 -0.843408,0 -0.09371,0.547764 -0.140569,0.821646 -0.281131,1.278116 -0.421705,1.415057 -0.937121,1.962821 -2.014809,2.008468 -1.405675,0.09129 -5.294713,0.04565 -6.559826,0.04565 -0.04687,0 -0.234279,-0.136941 -0.234279,-0.319529 v -9.951046 c 0,-0.182588 0.234279,-0.684705 0.46856,-0.730352 0.796551,-0.136941 5.435286,-0.09129 6.325545,0.04565 0.70284,0.09129 1.265113,0.365176 1.686817,1.095528 0.421704,0.684705 0.843403,2.008468 1.077683,3.834348 0.140568,0.04565 0.655984,0.04565 0.843409,-0.09129 0.140567,-2.28235 0.46856,-5.340699 0.796551,-6.573168 0,-0.04565 -0.04687,-0.09129 -0.09371,-0.136941 -1.499392,0.228235 -3.842187,0.228235 -5.622711,0.228235 h -8.574629 c -2.2490832,0 -5.2010069,-0.136941 -6.5129754,-0.136941 -0.046867,0.09129 -0.093712,0.639058 0,0.775999 z"
             style="font-weight:normal;font-size:86.1798px;line-height:1.25;font-family:'Arno Pro';-inkscape-font-specification:'Arno Pro';letter-spacing:10px;white-space:pre;fill:#ffffff;stroke-width:0.53664"
             id="path523" /><path
             d="m 29.319226,38.734147 c 0.994094,0.136941 1.372798,0.228235 1.988192,0.410823 1.467473,0.45647 2.03553,1.780233 3.266319,4.610347 1.467473,3.240937 4.071059,10.087987 6.485293,16.159038 0.94676,2.28235 1.514811,4.062583 2.130206,5.797169 0.804747,-0.09129 2.224882,-0.09129 3.076966,0 0.426043,-1.323763 1.230784,-3.560466 2.414234,-6.573168 2.177545,-5.47764 5.491196,-13.283277 6.721984,-16.569861 0.757409,-1.962821 1.420136,-2.875761 2.650925,-3.377878 0.426042,-0.182588 0.946755,-0.365176 1.988191,-0.45647 0.09467,-0.136941 0.09467,-0.684705 -0.04735,-0.775999 -0.852085,0 -2.130205,0.136941 -4.733792,0.136941 -2.556248,0 -4.449764,-0.182588 -5.112496,-0.182588 -0.09468,0.04565 -0.189352,0.684705 -0.142014,0.821646 1.136113,0.136941 2.130206,0.319529 2.7456,0.547764 1.088775,0.410823 1.372798,1.095528 0.804747,2.830114 -0.852085,2.830114 -4.875806,13.328924 -6.059257,15.885156 h -0.189352 c -0.189353,-0.502117 -6.153928,-14.652687 -7.05335,-17.254566 -0.189352,-0.547764 -0.189352,-0.91294 0.04735,-1.186822 0.284028,-0.319529 0.946761,-0.547764 2.461572,-0.821646 0.09467,-0.09129 0.09467,-0.684705 0.04735,-0.775999 -0.946755,0 -3.692355,0.136941 -6.485294,0.136941 -2.414234,0 -5.443862,-0.136941 -6.911335,-0.136941 -0.09467,0.04565 -0.189353,0.547764 -0.09467,0.775999 z"
             style="font-weight:normal;font-size:86.1798px;line-height:1.25;font-family:'Arno Pro';-inkscape-font-specification:'Arno Pro';letter-spacing:10px;white-space:pre;fill:#ffffff;stroke-width:0.539393"
             id="path525" /><path
             d="m 70.469482,38.734147 c 0.684707,0.04565 1.369413,0.228235 1.917178,0.319529 0.86729,0.182588 1.278114,0.91294 1.323761,2.373644 0.09129,2.464938 0.09129,4.792935 0.09129,9.1294 0,2.784467 -0.04566,10.179281 -0.136941,11.548691 -0.09129,1.688939 -0.365177,2.236703 -1.323761,2.464938 -0.502118,0.136941 -0.776,0.136941 -1.688943,0.273882 -0.136941,0.09129 -0.09129,0.639058 0,0.775999 0.547766,0 2.145409,-0.136941 6.116702,-0.136941 3.332228,0 5.158107,0.136941 6.436226,0.136941 0.136941,-0.182588 0.182588,-0.684705 0,-0.821646 l -2.054111,-0.319529 c -1.09553,-0.228235 -1.323766,-0.593411 -1.41506,-2.373644 -0.04566,-2.510585 -0.09129,-6.253639 -0.09129,-9.1294 0,-0.09129 0.09129,-0.273882 0.182588,-0.273882 h 0.776001 c 0.684707,0 1.095525,0.502117 1.369408,1.004234 1.41506,2.419291 4.153881,7.623049 5.888466,9.631517 0.273882,0.410823 1.186819,1.36941 2.099761,1.734586 1.871526,0.775999 5.934108,0.867293 8.718579,0.547764 0.0913,-0.182588 0.18258,-0.639058 0.13694,-0.821646 -2.054116,-0.182588 -2.191057,-0.273882 -3.834348,-1.82588 -2.556232,-2.373644 -6.892697,-9.768458 -7.62305,-11.183515 -0.04566,-0.09129 -0.04566,-0.273882 0.04566,-0.319529 2.92141,-1.095528 5.295054,-3.423525 5.295054,-6.84705 0,-4.290818 -2.738821,-6.618815 -8.033875,-6.618815 -4.108228,0 -6.344931,0.09129 -8.353399,0.09129 -1.597643,0 -4.747288,-0.136941 -5.842818,-0.136941 -0.0913,0.04565 -0.0913,0.684705 0,0.775999 z m 10.590107,0.45647 c 3.788699,0 5.705872,3.19529 5.705872,6.938344 0,3.058349 -0.730348,4.245171 -1.780232,4.792935 -0.958589,0.502117 -2.967056,0.684705 -5.066818,0.502117 -0.09129,0 -0.273882,-0.09129 -0.273882,-0.228235 0,-9.357635 0.04566,-10.635751 0.136941,-11.137868 0,-0.182588 0.09129,-0.593411 0.273883,-0.684705 0.502118,-0.182588 0.821648,-0.182588 1.004236,-0.182588 z"
             style="font-weight:normal;font-size:86.1798px;line-height:1.25;font-family:'Arno Pro';-inkscape-font-specification:'Arno Pro';letter-spacing:10px;white-space:pre;fill:#ffffff;stroke-width:0.529672"
             id="path527" /><path
             d="m 96.459512,38.734147 c 0.273883,0 0.547766,0.04565 1.186825,0.182588 1.278114,0.319529 1.734585,0.365176 3.697413,3.606113 1.59764,2.601879 4.15387,7.486108 5.20376,9.677164 0.41082,0.867293 0.50211,1.460704 0.50211,2.191056 0,1.871527 0,5.203758 -0.0913,7.349167 0,1.232469 -0.0457,2.419291 -1.27812,2.693173 -0.59341,0.136941 -1.18682,0.228235 -2.328,0.365176 -0.0913,0.04565 -0.13694,0.775999 0,0.821646 1.23248,0 2.78447,-0.136941 6.43623,-0.136941 2.64753,0 5.15811,0.136941 6.98399,0.136941 0.0913,-0.09129 0.13694,-0.730352 0.0913,-0.821646 -1.04987,-0.136941 -1.64329,-0.228235 -2.2367,-0.365176 -1.27811,-0.319529 -1.4607,-1.278116 -1.50635,-2.601879 -0.0457,-2.28235 -0.13694,-5.751522 -0.13694,-7.896931 0,-0.91294 0.13694,-1.36941 0.50212,-2.099762 0.95858,-2.008468 3.74305,-7.029638 5.29505,-9.722811 1.23247,-2.099762 2.09976,-2.693173 3.28658,-3.058349 0.41083,-0.136941 1.00424,-0.228235 1.59765,-0.319529 0.13694,-0.136941 0.0913,-0.730352 0,-0.775999 -1.04988,0 -2.60188,0.136941 -4.29082,0.136941 -1.64329,0 -4.24517,-0.136941 -4.74729,-0.136941 -0.0913,0.09129 -0.13694,0.593411 -0.0913,0.775999 1.00423,0.182588 1.36941,0.228235 2.00847,0.410823 0.95858,0.273882 1.32376,0.684705 0.91294,1.734586 -0.91294,2.28235 -3.56047,7.531755 -4.92988,9.814105 -0.0913,0.04565 -0.18259,0.04565 -0.22824,0 -0.63905,-1.141175 -4.42775,-8.307754 -5.38634,-10.407516 -0.27388,-0.593411 -0.13694,-1.004234 0.45647,-1.186822 0.36517,-0.09129 1.14118,-0.319529 1.552,-0.365176 0.0913,-0.136941 0.0457,-0.684705 -0.0457,-0.775999 -0.776,0.04565 -3.28658,0.136941 -6.25364,0.136941 -2.37364,0 -4.5647,-0.136941 -6.162348,-0.136941 -0.09129,0.09129 -0.136942,0.639058 0,0.775999 z"
             style="font-weight:normal;font-size:86.1798px;line-height:1.25;font-family:'Arno Pro';-inkscape-font-specification:'Arno Pro';letter-spacing:10px;white-space:pre;fill:#ffffff;stroke-width:0.529672"
             id="path529" /></g></g><g
         id="g10047"><g
           id="g9978"
           style="fill:#000000;filter:url(#filter9980)"
           transform="translate(0.52916663,0.52916663)"><path
             d="m 51.063804,160.80512 c 1.234641,0 1.74116,1.01304 1.74116,2.16854 0,0.94972 -0.379889,2.01025 -0.949723,2.83335 -0.775608,1.07635 -1.551217,1.78864 -2.706716,2.70671 -0.03166,0.0475 -0.03166,0.25326 0.01583,0.30075 0.189945,0 0.601491,-0.0317 1.13967,-0.0317 1.329614,0 2.785858,0.0791 3.941357,0.0475 0.585663,-0.0158 0.680636,-0.0475 0.791437,-0.15829 0.300745,-0.31658 0.838924,-1.94694 0.981381,-2.56426 0,-0.0317 -0.221601,-0.12663 -0.284916,-0.095 -0.490692,1.06052 -0.870581,1.17133 -1.202986,1.18715 -0.712293,0.0317 -2.51677,-0.0158 -3.197406,-0.0633 -0.04749,0 -0.04749,-0.0633 -0.03166,-0.0791 0.791438,-0.74396 1.171328,-1.07636 1.64619,-1.55122 1.187157,-1.17133 1.788648,-2.21603 1.788648,-3.32404 0,-1.85196 -1.266298,-2.80169 -2.51677,-2.80169 -1.060527,0 -2.295168,0.68064 -3.14992,2.12106 -0.01583,0.0475 0.174116,0.25326 0.221603,0.2216 0.585663,-0.72812 1.25047,-0.91807 1.77282,-0.91807 z"
             style="font-weight:normal;font-size:86.1798px;line-height:1.25;font-family:'Arno Pro';-inkscape-font-specification:'Arno Pro';letter-spacing:0px;white-space:pre;fill:#000000;stroke-width:0.183671"
             id="path9970" /><path
             d="m 60.117833,159.38053 c -0.648978,0 -1.424586,0.20578 -2.02608,0.7123 -1.060525,0.90224 -1.456244,2.62757 -1.456244,3.98884 0,1.77282 0.25326,3.49815 1.424587,4.38456 0.522349,0.39572 1.108012,0.50652 1.851963,0.50652 0.601492,0 1.250472,-0.18994 1.693676,-0.47486 1.329614,-0.85475 1.709505,-2.6434 1.709505,-4.49536 0,-1.69368 -0.379891,-2.88083 -0.965554,-3.59313 -0.443204,-0.60149 -1.171326,-1.02887 -2.231853,-1.02887 z m -0.25326,0.33241 c 0.918067,0 1.408758,1.78865 1.408758,4.55868 0,3.00746 -0.300745,3.84638 -0.63315,4.16296 -0.07914,0.0791 -0.269087,0.18994 -0.506519,0.18994 -0.838923,0 -1.440415,-1.32961 -1.440415,-4.81194 0,-1.89945 0.253258,-3.54564 0.791437,-3.97301 0.09497,-0.0791 0.253259,-0.12663 0.379889,-0.12663 z"
             style="font-weight:normal;font-size:86.1798px;line-height:1.25;font-family:'Arno Pro';-inkscape-font-specification:'Arno Pro';letter-spacing:0px;white-space:pre;fill:#000000;stroke-width:0.183671"
             id="path9972" /><path
             d="m 69.931642,168.54538 c -0.205774,-0.0317 -0.427375,-0.0475 -0.648978,-0.095 -0.443204,-0.095 -0.474861,-0.56984 -0.506519,-1.13967 -0.04749,-1.29796 -0.04749,-4.06799 -0.04749,-5.35012 0,-1.29796 0.01583,-1.82031 0.03166,-2.50094 0,-0.0475 -0.09497,-0.095 -0.142459,-0.0791 -0.601492,0.26909 -1.63036,0.64898 -2.944146,0.7123 -0.03166,0.0475 -0.04749,0.23743 -0.01583,0.30074 0.205772,0.0317 0.427375,0.0791 0.617321,0.12663 0.316573,0.0633 0.379888,0.36407 0.395717,0.64898 0.03166,0.41155 0.04749,1.67785 0.03166,3.00746 -0.01583,1.69368 -0.01583,2.54843 -0.04749,3.19741 -0.03166,0.49069 -0.03166,0.94973 -0.49069,1.06053 l -0.696464,0.1108 c -0.04749,0.0317 -0.04749,0.26909 0,0.30074 0.300745,0 0.838923,-0.0633 2.073564,-0.0633 0.918068,0 1.946937,0.0633 2.358483,0.0633 0.06332,-0.0475 0.06332,-0.26908 0.03166,-0.30074 z"
             style="font-weight:normal;font-size:86.1798px;line-height:1.25;font-family:'Arno Pro';-inkscape-font-specification:'Arno Pro';letter-spacing:0px;white-space:pre;fill:#000000;stroke-width:0.183671"
             id="path9974" /><path
             d="m 74.047105,160.80512 c 1.234641,0 1.741162,1.01304 1.741162,2.16854 0,0.94972 -0.37989,2.01025 -0.949725,2.83335 -0.775608,1.07635 -1.551217,1.78864 -2.706716,2.70671 -0.03166,0.0475 -0.03166,0.25326 0.01583,0.30075 0.189945,0 0.601492,-0.0317 1.13967,-0.0317 1.329614,0 2.785858,0.0791 3.941357,0.0475 0.585663,-0.0158 0.680636,-0.0475 0.791438,-0.15829 0.300745,-0.31658 0.838923,-1.94694 0.981382,-2.56426 0,-0.0317 -0.221603,-0.12663 -0.284918,-0.095 -0.490692,1.06052 -0.870581,1.17133 -1.202985,1.18715 -0.712294,0.0317 -2.516769,-0.0158 -3.197407,-0.0633 -0.04749,0 -0.04749,-0.0633 -0.03166,-0.0791 0.791437,-0.74396 1.171328,-1.07636 1.646189,-1.55122 1.187157,-1.17133 1.788649,-2.21603 1.788649,-3.32404 0,-1.85196 -1.266299,-2.80169 -2.516771,-2.80169 -1.060525,0 -2.295168,0.68064 -3.14992,2.12106 -0.01583,0.0475 0.174117,0.25326 0.221603,0.2216 0.585663,-0.72812 1.25047,-0.91807 1.77282,-0.91807 z"
             style="font-weight:normal;font-size:86.1798px;line-height:1.25;font-family:'Arno Pro';-inkscape-font-specification:'Arno Pro';letter-spacing:0px;white-space:pre;fill:#000000;stroke-width:0.183671"
             id="path9976" /></g><g
           id="g619"
           style="fill:#ffffff"><path
             d="m 51.063804,160.80512 c 1.234641,0 1.74116,1.01304 1.74116,2.16854 0,0.94972 -0.379889,2.01025 -0.949723,2.83335 -0.775608,1.07635 -1.551217,1.78864 -2.706716,2.70671 -0.03166,0.0475 -0.03166,0.25326 0.01583,0.30075 0.189945,0 0.601491,-0.0317 1.13967,-0.0317 1.329614,0 2.785858,0.0791 3.941357,0.0475 0.585663,-0.0158 0.680636,-0.0475 0.791437,-0.15829 0.300745,-0.31658 0.838924,-1.94694 0.981381,-2.56426 0,-0.0317 -0.221601,-0.12663 -0.284916,-0.095 -0.490692,1.06052 -0.870581,1.17133 -1.202986,1.18715 -0.712293,0.0317 -2.51677,-0.0158 -3.197406,-0.0633 -0.04749,0 -0.04749,-0.0633 -0.03166,-0.0791 0.791438,-0.74396 1.171328,-1.07636 1.64619,-1.55122 1.187157,-1.17133 1.788648,-2.21603 1.788648,-3.32404 0,-1.85196 -1.266298,-2.80169 -2.51677,-2.80169 -1.060527,0 -2.295168,0.68064 -3.14992,2.12106 -0.01583,0.0475 0.174116,0.25326 0.221603,0.2216 0.585663,-0.72812 1.25047,-0.91807 1.77282,-0.91807 z"
             style="font-weight:normal;font-size:86.1798px;line-height:1.25;font-family:'Arno Pro';-inkscape-font-specification:'Arno Pro';letter-spacing:0px;white-space:pre;fill:#ffffff;stroke-width:0.183671"
             id="path607" /><path
             d="m 60.117833,159.38053 c -0.648978,0 -1.424586,0.20578 -2.02608,0.7123 -1.060525,0.90224 -1.456244,2.62757 -1.456244,3.98884 0,1.77282 0.25326,3.49815 1.424587,4.38456 0.522349,0.39572 1.108012,0.50652 1.851963,0.50652 0.601492,0 1.250472,-0.18994 1.693676,-0.47486 1.329614,-0.85475 1.709505,-2.6434 1.709505,-4.49536 0,-1.69368 -0.379891,-2.88083 -0.965554,-3.59313 -0.443204,-0.60149 -1.171326,-1.02887 -2.231853,-1.02887 z m -0.25326,0.33241 c 0.918067,0 1.408758,1.78865 1.408758,4.55868 0,3.00746 -0.300745,3.84638 -0.63315,4.16296 -0.07914,0.0791 -0.269087,0.18994 -0.506519,0.18994 -0.838923,0 -1.440415,-1.32961 -1.440415,-4.81194 0,-1.89945 0.253258,-3.54564 0.791437,-3.97301 0.09497,-0.0791 0.253259,-0.12663 0.379889,-0.12663 z"
             style="font-weight:normal;font-size:86.1798px;line-height:1.25;font-family:'Arno Pro';-inkscape-font-specification:'Arno Pro';letter-spacing:0px;white-space:pre;fill:#ffffff;stroke-width:0.183671"
             id="path609" /><path
             d="m 69.931642,168.54538 c -0.205774,-0.0317 -0.427375,-0.0475 -0.648978,-0.095 -0.443204,-0.095 -0.474861,-0.56984 -0.506519,-1.13967 -0.04749,-1.29796 -0.04749,-4.06799 -0.04749,-5.35012 0,-1.29796 0.01583,-1.82031 0.03166,-2.50094 0,-0.0475 -0.09497,-0.095 -0.142459,-0.0791 -0.601492,0.26909 -1.63036,0.64898 -2.944146,0.7123 -0.03166,0.0475 -0.04749,0.23743 -0.01583,0.30074 0.205772,0.0317 0.427375,0.0791 0.617321,0.12663 0.316573,0.0633 0.379888,0.36407 0.395717,0.64898 0.03166,0.41155 0.04749,1.67785 0.03166,3.00746 -0.01583,1.69368 -0.01583,2.54843 -0.04749,3.19741 -0.03166,0.49069 -0.03166,0.94973 -0.49069,1.06053 l -0.696464,0.1108 c -0.04749,0.0317 -0.04749,0.26909 0,0.30074 0.300745,0 0.838923,-0.0633 2.073564,-0.0633 0.918068,0 1.946937,0.0633 2.358483,0.0633 0.06332,-0.0475 0.06332,-0.26908 0.03166,-0.30074 z"
             style="font-weight:normal;font-size:86.1798px;line-height:1.25;font-family:'Arno Pro';-inkscape-font-specification:'Arno Pro';letter-spacing:0px;white-space:pre;fill:#ffffff;stroke-width:0.183671"
             id="path611" /><path
             d="m 74.047105,160.80512 c 1.234641,0 1.741162,1.01304 1.741162,2.16854 0,0.94972 -0.37989,2.01025 -0.949725,2.83335 -0.775608,1.07635 -1.551217,1.78864 -2.706716,2.70671 -0.03166,0.0475 -0.03166,0.25326 0.01583,0.30075 0.189945,0 0.601492,-0.0317 1.13967,-0.0317 1.329614,0 2.785858,0.0791 3.941357,0.0475 0.585663,-0.0158 0.680636,-0.0475 0.791438,-0.15829 0.300745,-0.31658 0.838923,-1.94694 0.981382,-2.56426 0,-0.0317 -0.221603,-0.12663 -0.284918,-0.095 -0.490692,1.06052 -0.870581,1.17133 -1.202985,1.18715 -0.712294,0.0317 -2.516769,-0.0158 -3.197407,-0.0633 -0.04749,0 -0.04749,-0.0633 -0.03166,-0.0791 0.791437,-0.74396 1.171328,-1.07636 1.646189,-1.55122 1.187157,-1.17133 1.788649,-2.21603 1.788649,-3.32404 0,-1.85196 -1.266299,-2.80169 -2.516771,-2.80169 -1.060525,0 -2.295168,0.68064 -3.14992,2.12106 -0.01583,0.0475 0.174117,0.25326 0.221603,0.2216 0.585663,-0.72812 1.25047,-0.91807 1.77282,-0.91807 z"
             style="font-weight:normal;font-size:86.1798px;line-height:1.25;font-family:'Arno Pro';-inkscape-font-specification:'Arno Pro';letter-spacing:0px;white-space:pre;fill:#ffffff;stroke-width:0.183671"
             id="path613" /></g></g><g
         id="g10071"><g
           id="g9188"
           style="fill:#000000;filter:url(#filter9190)"
           transform="translate(1.0583333,1.0583333)"><path
             d="m 71.287398,76.616295 1.34159,0.243925 c 0.701283,0.182944 0.914718,0.304906 0.975699,1.524531 0.06098,1.158644 0.06098,3.292988 0.06098,6.677448 0,1.829438 -0.0305,6.555485 -0.09147,7.256769 -0.06098,0.884228 -0.152453,1.341588 -0.884226,1.524531 -0.518342,0.121963 -0.85374,0.09147 -1.250119,0.182944 -0.0305,0.03049 -0.0305,0.48785 0.0305,0.548831 1.737966,0 2.9271,-0.09147 4.512612,-0.09147 1.676985,0 2.530725,0.09147 4.146728,0.09147 0.09147,-0.03049 0.09147,-0.51834 0.06098,-0.548831 -0.609814,-0.06098 -0.945212,-0.09147 -1.372078,-0.182944 -0.670796,-0.152453 -1.128156,-0.274415 -1.128156,-1.98189 0,-1.9514 -0.0305,-3.658876 -0.0305,-5.640766 0,-0.03049 0.09147,-0.182944 0.152454,-0.182944 0.88423,0 3.597895,0.03049 4.329668,0.09147 0.487851,0.03049 0.914721,0.243925 1.158646,0.884228 0.152454,0.365888 0.304904,0.884228 0.365885,1.402569 0.09147,0.03049 0.487851,0.03049 0.518342,-0.06098 0,-0.823247 -0.06098,-2.134344 -0.06098,-2.835629 0,-0.945209 0.06098,-2.347778 0.121963,-3.049062 -0.0305,-0.03049 -0.487852,-0.03049 -0.518342,0.03049 -0.121963,0.640304 -0.335394,1.189135 -0.457357,1.494041 -0.213435,0.518341 -0.609814,0.731775 -1.555022,0.792756 -0.975703,0.06098 -3.018572,0.06098 -3.902802,0.06098 -0.06098,0 -0.152454,-0.06098 -0.152454,-0.121963 0,-2.500231 0,-5.579785 0.06098,-7.012844 0,-0.121963 0.121962,-0.396378 0.304907,-0.426869 0.518341,-0.09147 3.353969,-0.06098 4.146724,0 0.45736,0.03049 0.945211,0.213434 1.219628,0.670794 0.396375,0.670794 0.640301,1.494041 0.823245,2.713666 0.06098,0.06098 0.487851,0.06098 0.548832,0 0.09147,-2.378269 0.304904,-3.811329 0.457357,-4.512613 0.0305,-0.09147 -0.06098,-0.182944 -0.152453,-0.182944 -0.335394,0.09147 -1.067171,0.213435 -3.049063,0.213435 h -6.494501 c -2.439252,0 -3.750348,-0.09147 -4.238199,-0.09147 -0.0305,0.03049 -0.06098,0.457359 0,0.51834 z"
             style="font-weight:normal;font-size:86.1798px;line-height:1.25;font-family:'Arno Pro';-inkscape-font-specification:'Arno Pro';letter-spacing:10px;white-space:pre;fill:#000000;stroke-width:0.353802"
             id="path9180" /><path
             d="m 107.72218,80.915474 c 0,0.09147 0.51834,0.09147 0.60982,-0.03049 0.0305,-1.585512 0.39637,-3.994272 0.57932,-4.787028 -1.58551,-0.09147 -4.17722,-0.45736 -5.88469,-0.45736 -2.56122,0 -4.665066,0.45736 -6.281066,1.311097 -3.262498,1.707475 -4.756539,4.84801 -4.756539,8.171488 0,6.555485 3.811329,9.909454 10.549755,9.909454 2.19532,0 3.59789,-0.365888 4.60408,-0.670794 0.79276,-0.640303 1.89042,-3.049063 2.16483,-4.177216 -0.0305,-0.121962 -0.39637,-0.274415 -0.48784,-0.274415 -0.51834,1.067172 -1.3111,2.225815 -2.04288,2.9271 -0.9452,0.914719 -2.43924,1.128153 -3.44544,1.128153 -4.726046,0 -6.799406,-4.146725 -6.799406,-9.177679 0,-5.823709 2.43925,-8.415413 5.701746,-8.415413 1.15864,0 2.53072,0.09147 3.81133,0.853738 1.25012,0.762265 1.49404,2.134344 1.67698,3.689365 z"
             style="font-weight:normal;font-size:86.1798px;line-height:1.25;font-family:'Arno Pro';-inkscape-font-specification:'Arno Pro';letter-spacing:10px;white-space:pre;fill:#000000;stroke-width:0.353802"
             id="path9182" /><path
             d="m 113.87286,90.520021 c -0.48784,0 -1.03668,0.213434 -1.46355,0.640303 -0.39637,0.396378 -0.64028,0.9757 -0.64028,1.524532 0,0.609812 0.15246,1.158643 0.6098,1.555021 0.39638,0.426869 0.94523,0.609813 1.37207,0.609813 0.60982,0 1.18914,-0.182944 1.61602,-0.640303 0.39638,-0.396378 0.57932,-1.067172 0.57932,-1.46355 0,-0.518341 -0.12196,-1.189135 -0.6708,-1.676985 -0.3354,-0.335397 -0.91471,-0.548831 -1.40258,-0.548831 z"
             style="font-weight:normal;font-size:86.1798px;line-height:1.25;font-family:'Arno Pro';-inkscape-font-specification:'Arno Pro';letter-spacing:10px;white-space:pre;fill:#000000;stroke-width:0.353802"
             id="path9184" /><path
             d="m 87.864876,90.520021 c -0.487848,0 -1.03668,0.213434 -1.46355,0.640303 -0.396376,0.396378 -0.640301,0.9757 -0.640301,1.524532 0,0.609812 0.152453,1.158643 0.60981,1.555021 0.396379,0.426869 0.945212,0.609813 1.372082,0.609813 0.60981,0 1.189133,-0.182944 1.615999,-0.640303 0.39638,-0.396378 0.579324,-1.067172 0.579324,-1.46355 0,-0.518341 -0.121963,-1.189135 -0.670792,-1.676985 -0.335398,-0.335397 -0.914721,-0.548831 -1.402572,-0.548831 z"
             style="font-weight:normal;font-size:86.1798px;line-height:1.25;font-family:'Arno Pro';-inkscape-font-specification:'Arno Pro';letter-spacing:10px;white-space:pre;fill:#000000;stroke-width:0.353802"
             id="path9186" /></g><g
           id="g9178"
           style="fill:#ffffff"><path
             d="m 71.287398,76.616295 1.34159,0.243925 c 0.701283,0.182944 0.914718,0.304906 0.975699,1.524531 0.06098,1.158644 0.06098,3.292988 0.06098,6.677448 0,1.829438 -0.0305,6.555485 -0.09147,7.256769 -0.06098,0.884228 -0.152453,1.341588 -0.884226,1.524531 -0.518342,0.121963 -0.85374,0.09147 -1.250119,0.182944 -0.0305,0.03049 -0.0305,0.48785 0.0305,0.548831 1.737966,0 2.9271,-0.09147 4.512612,-0.09147 1.676985,0 2.530725,0.09147 4.146728,0.09147 0.09147,-0.03049 0.09147,-0.51834 0.06098,-0.548831 -0.609814,-0.06098 -0.945212,-0.09147 -1.372078,-0.182944 -0.670796,-0.152453 -1.128156,-0.274415 -1.128156,-1.98189 0,-1.9514 -0.0305,-3.658876 -0.0305,-5.640766 0,-0.03049 0.09147,-0.182944 0.152454,-0.182944 0.88423,0 3.597895,0.03049 4.329668,0.09147 0.487851,0.03049 0.914721,0.243925 1.158646,0.884228 0.152454,0.365888 0.304904,0.884228 0.365885,1.402569 0.09147,0.03049 0.487851,0.03049 0.518342,-0.06098 0,-0.823247 -0.06098,-2.134344 -0.06098,-2.835629 0,-0.945209 0.06098,-2.347778 0.121963,-3.049062 -0.0305,-0.03049 -0.487852,-0.03049 -0.518342,0.03049 -0.121963,0.640304 -0.335394,1.189135 -0.457357,1.494041 -0.213435,0.518341 -0.609814,0.731775 -1.555022,0.792756 -0.975703,0.06098 -3.018572,0.06098 -3.902802,0.06098 -0.06098,0 -0.152454,-0.06098 -0.152454,-0.121963 0,-2.500231 0,-5.579785 0.06098,-7.012844 0,-0.121963 0.121962,-0.396378 0.304907,-0.426869 0.518341,-0.09147 3.353969,-0.06098 4.146724,0 0.45736,0.03049 0.945211,0.213434 1.219628,0.670794 0.396375,0.670794 0.640301,1.494041 0.823245,2.713666 0.06098,0.06098 0.487851,0.06098 0.548832,0 0.09147,-2.378269 0.304904,-3.811329 0.457357,-4.512613 0.0305,-0.09147 -0.06098,-0.182944 -0.152453,-0.182944 -0.335394,0.09147 -1.067171,0.213435 -3.049063,0.213435 h -6.494501 c -2.439252,0 -3.750348,-0.09147 -4.238199,-0.09147 -0.0305,0.03049 -0.06098,0.457359 0,0.51834 z"
             style="font-weight:normal;font-size:86.1798px;line-height:1.25;font-family:'Arno Pro';-inkscape-font-specification:'Arno Pro';letter-spacing:10px;white-space:pre;fill:#ffffff;stroke-width:0.353802"
             id="path559" /><path
             d="m 107.72218,80.915474 c 0,0.09147 0.51834,0.09147 0.60982,-0.03049 0.0305,-1.585512 0.39637,-3.994272 0.57932,-4.787028 -1.58551,-0.09147 -4.17722,-0.45736 -5.88469,-0.45736 -2.56122,0 -4.665066,0.45736 -6.281066,1.311097 -3.262498,1.707475 -4.756539,4.84801 -4.756539,8.171488 0,6.555485 3.811329,9.909454 10.549755,9.909454 2.19532,0 3.59789,-0.365888 4.60408,-0.670794 0.79276,-0.640303 1.89042,-3.049063 2.16483,-4.177216 -0.0305,-0.121962 -0.39637,-0.274415 -0.48784,-0.274415 -0.51834,1.067172 -1.3111,2.225815 -2.04288,2.9271 -0.9452,0.914719 -2.43924,1.128153 -3.44544,1.128153 -4.726046,0 -6.799406,-4.146725 -6.799406,-9.177679 0,-5.823709 2.43925,-8.415413 5.701746,-8.415413 1.15864,0 2.53072,0.09147 3.81133,0.853738 1.25012,0.762265 1.49404,2.134344 1.67698,3.689365 z"
             style="font-weight:normal;font-size:86.1798px;line-height:1.25;font-family:'Arno Pro';-inkscape-font-specification:'Arno Pro';letter-spacing:10px;white-space:pre;fill:#ffffff;stroke-width:0.353802"
             id="path563" /><path
             d="m 113.87286,90.520021 c -0.48784,0 -1.03668,0.213434 -1.46355,0.640303 -0.39637,0.396378 -0.64028,0.9757 -0.64028,1.524532 0,0.609812 0.15246,1.158643 0.6098,1.555021 0.39638,0.426869 0.94523,0.609813 1.37207,0.609813 0.60982,0 1.18914,-0.182944 1.61602,-0.640303 0.39638,-0.396378 0.57932,-1.067172 0.57932,-1.46355 0,-0.518341 -0.12196,-1.189135 -0.6708,-1.676985 -0.3354,-0.335397 -0.91471,-0.548831 -1.40258,-0.548831 z"
             style="font-weight:normal;font-size:86.1798px;line-height:1.25;font-family:'Arno Pro';-inkscape-font-specification:'Arno Pro';letter-spacing:10px;white-space:pre;fill:#ffffff;stroke-width:0.353802"
             id="path565" /><path
             d="m 87.864876,90.520021 c -0.487848,0 -1.03668,0.213434 -1.46355,0.640303 -0.396376,0.396378 -0.640301,0.9757 -0.640301,1.524532 0,0.609812 0.152453,1.158643 0.60981,1.555021 0.396379,0.426869 0.945212,0.609813 1.372082,0.609813 0.60981,0 1.189133,-0.182944 1.615999,-0.640303 0.39638,-0.396378 0.579324,-1.067172 0.579324,-1.46355 0,-0.518341 -0.121963,-1.189135 -0.670792,-1.676985 -0.335398,-0.335397 -0.914721,-0.548831 -1.402572,-0.548831 z"
             style="font-weight:normal;font-size:86.1798px;line-height:1.25;font-family:'Arno Pro';-inkscape-font-specification:'Arno Pro';letter-spacing:10px;white-space:pre;fill:#ffffff;stroke-width:0.353802"
             id="path561" /></g></g><g
         id="g11780"><ellipse
           style="fill:#000000;fill-opacity:1;stroke:none;stroke-width:0.0499999;stroke-dasharray:none;stroke-opacity:1;filter:url(#filter11711)"
           id="path10187"
           cx="63.817883"
           cy="150.58514"
           rx="18.641155"
           ry="3.3034956" /><g
           id="g10076"><circle
             style="fill:#ffffff;stroke:none;stroke-width:0.0907475;stroke-dasharray:none;stroke-opacity:1"
             id="circle5230"
             cx="63.81776"
             cy="124.34984"
             r="27.072126" /><path
             id="path5226"
             style="fill:#000000;stroke:none;stroke-width:0.0911909;stroke-dasharray:none;stroke-opacity:1"
             d="M 63.817882,97.145256 A 27.204405,27.204405 0 0 0 36.613341,124.3498 27.204405,27.204405 0 0 0 63.817882,151.55434 27.204405,27.204405 0 0 0 91.022423,124.3498 27.204405,27.204405 0 0 0 63.817882,97.145256 Z m 0,0.264583 A 26.939848,26.939848 0 0 1 90.75784,124.3498 26.939848,26.939848 0 0 1 63.817882,151.28975 26.939848,26.939848 0 0 1 36.877925,124.3498 26.939848,26.939848 0 0 1 63.817882,97.409839 Z" /><path
             id="path1382"
             style="fill:#000000;stroke:none;stroke-width:0.05;stroke-linecap:butt;stroke-linejoin:miter;stroke-dasharray:none;stroke-opacity:1"
             d="m 63.817882,97.277548 a 27.072126,27.072126 0 0 0 -8.012947,1.214396 c 0.141778,0.282008 0.191072,0.562398 -0.01137,0.824239 -0.387638,0.501379 -0.587435,0.807677 -0.710034,1.164267 -5.607662,1.70299 -7.876965,4.35435 -9.639722,7.1112 -1.137339,0.31546 -2.274856,0.72064 -3.412195,1.67896 l -0.03617,-0.91053 a 27.072126,27.072126 0 0 0 -5.148006,13.73456 L 37.805,121.95098 c 0.688686,1.42784 1.605371,2.05776 2.554366,2.57452 0.360372,5.78972 1.686686,9.0323 3.274219,11.44633 -0.420878,1.09134 -0.462174,3.33151 -0.187069,4.81314 l -0.807703,0.42633 a 27.072126,27.072126 0 0 0 11.41119,8.38192 c -0.242905,-0.46855 -0.206706,-0.90644 0.550354,-0.99012 1.513928,-0.16734 2.615978,-0.94545 3.466972,-1.69706 4.247039,1.12241 8.361157,0.90744 12.395626,-0.008 l -0.0021,-0.01 c 0.859419,0.74477 2.039567,1.55165 3.513997,1.71463 0.497863,0.055 0.6822,0.26395 0.682646,0.5333 a 27.072126,27.072126 0 0 0 10.505819,-8.15093 c -0.252138,-0.19405 -0.404601,-0.46796 -0.349333,-0.90795 0.279424,-1.50489 0.125449,-3.155 -0.325045,-4.16099 1.730612,-2.16684 3.449145,-5.17461 4.138766,-11.4024 0.783535,-0.48779 1.542983,-1.28784 2.172477,-2.35386 a 27.072126,27.072126 0 0 0 -5.32629,-14.05651 c -0.860195,-0.29707 -1.768999,-0.42659 -2.524911,-0.601 -2.285186,-2.79878 -4.613305,-5.65209 -10.278442,-7.504448 -0.368436,-0.45819 -0.147112,-0.888638 -0.04961,-1.248503 a 27.072126,27.072126 0 0 0 -8.803081,-1.472261 z m 8.885246,3.010152 c 5.514493,1.8303 7.763127,4.59206 10.027295,7.36596 0.785326,3.05637 1.321887,6.39563 0.294556,8.53643 -2.861114,0.35029 -5.982155,1.26894 -9.105904,2.36213 -2.986818,-2.37081 -8.082415,-6.26238 -9.407695,-6.27765 l 0.03617,-9.22218 c 1.386993,-1.66293 4.859467,-2.3452 8.155574,-2.76469 z m -17.580322,0.45785 c 3.204968,0.25533 6.217211,0.31114 9.160681,2.35697 l -0.03772,9.20408 c -1.689008,0.37391 -6.368663,3.91885 -9.113139,6.35517 -2.684308,-0.96635 -5.520955,-1.88588 -9.022705,-2.58227 -1.236877,-1.79851 -0.726042,-5.24016 -0.298689,-8.56847 1.721886,-2.64632 3.936338,-5.12556 9.311576,-6.76548 z m -8.95966,15.61455 c 3.390941,0.68127 6.155475,1.57144 8.775692,2.512 0.392857,3.66509 1.709928,7.43188 3.686597,10.50116 -1.971132,3.12846 -3.959816,6.40803 -5.848739,8.92917 -2.096665,0.71345 -5.851271,-0.68228 -8.914701,-2.46703 -1.553887,-2.35875 -2.856019,-5.50344 -3.228744,-11.16366 0.0028,0.001 0.0055,0.003 0.0083,0.005 1.066426,-3.09471 2.72585,-5.94213 5.521627,-8.31629 z m 36.924878,0.0894 c 2.761346,2.36276 4.194556,5.14052 5.255493,8.21604 -0.714691,6.21514 -2.450285,9.10692 -4.187341,11.24117 -2.947481,1.70917 -6.141783,3.03687 -8.211902,2.44172 -1.554304,-2.82132 -3.624406,-5.81186 -5.550049,-8.65219 1.806708,-3.47191 3.07918,-7.21584 3.654557,-10.90889 3.112617,-1.0876 6.215163,-1.99586 9.039242,-2.33785 z m -24.263118,13.10153 c 3.80067,1.27615 7.601216,1.39804 11.401888,0.36897 1.908017,2.81341 3.945371,5.76411 5.475118,8.53746 -1.263288,3.41783 -2.762289,6.12454 -5.490621,8.20932 0.0047,0.004 0.0098,0.009 0.01447,0.0129 -3.938436,0.87249 -7.936023,1.06247 -12.061796,-0.0222 -2.34981,-2.48915 -4.001798,-4.78538 -5.251876,-8.09615 1.917315,-2.54166 3.925164,-5.85454 5.912817,-9.0103 z" /></g></g></g></g></svg>
