<?xml version="1.0" encoding="UTF-8" standalone="no"?>
<svg
   viewBox="0 0 577.71081 700.00002"
   version="1.1"
   id="svg266"
   sodipodi:docname="header_logo_1.svg"
   inkscape:version="1.2 (dc2aeda, 2022-05-15)"
   width="577.71082"
   height="700"
   xmlns:inkscape="http://www.inkscape.org/namespaces/inkscape"
   xmlns:sodipodi="http://sodipodi.sourceforge.net/DTD/sodipodi-0.dtd"
   xmlns:xlink="http://www.w3.org/1999/xlink"
   xmlns="http://www.w3.org/2000/svg"
   xmlns:svg="http://www.w3.org/2000/svg">
  <sodipodi:namedview
     id="namedview268"
     pagecolor="#ffffff"
     bordercolor="#000000"
     borderopacity="0.25"
     inkscape:showpageshadow="2"
     inkscape:pageopacity="0.0"
     inkscape:pagecheckerboard="0"
     inkscape:deskcolor="#d1d1d1"
     showgrid="false"
     inkscape:zoom="1.347207"
     inkscape:cx="254.60081"
     inkscape:cy="314.7252"
     inkscape:window-width="1920"
     inkscape:window-height="1080"
     inkscape:window-x="0"
     inkscape:window-y="0"
     inkscape:window-maximized="0"
     inkscape:current-layer="svg266" />
  <defs
     id="defs232">
    <linearGradient
       id="b"
       x1="15.06"
       y1="277.14001"
       x2="439.51999"
       y2="277.14001"
       gradientUnits="userSpaceOnUse">
      <stop
         offset="0"
         stop-color="#ec2027"
         id="stop182" />
      <stop
         offset=".26"
         stop-color="#ea2027"
         id="stop184" />
      <stop
         offset=".35"
         stop-color="#e32027"
         id="stop186" />
      <stop
         offset=".42"
         stop-color="#d82027"
         id="stop188" />
      <stop
         offset=".48"
         stop-color="#c72026"
         id="stop190" />
      <stop
         offset=".5"
         stop-color="#bc2026"
         id="stop192" />
      <stop
         offset=".78"
         stop-color="#ce2027"
         id="stop194" />
      <stop
         offset="1"
         stop-color="#d72027"
         id="stop196" />
    </linearGradient>
    <linearGradient
       id="c"
       x1="217.13"
       y1="165.34"
       x2="401.26999"
       y2="423.64001"
       gradientUnits="userSpaceOnUse"
       gradientTransform="translate(28.94878,3.711382)">
      <stop
         offset=".5"
         id="stop199" />
      <stop
         offset=".71"
         stop-color="#070707"
         id="stop201" />
      <stop
         offset="1"
         stop-color="#1a1a1a"
         id="stop203" />
    </linearGradient>
    <linearGradient
       id="d"
       x1="132"
       y1="11.25"
       x2="241.64"
       y2="215.02"
       gradientUnits="userSpaceOnUse"
       gradientTransform="translate(-48.247966,0.74227641)">
      <stop
         offset=".5"
         stop-color="#231f20"
         id="stop206" />
      <stop
         offset="1"
         stop-color="#666"
         id="stop208" />
    </linearGradient>
    <linearGradient
       id="e"
       x1="15.06"
       y1="48.040001"
       x2="153.84"
       y2="48.040001"
       gradientUnits="userSpaceOnUse">
      <stop
         offset="0"
         stop-color="gray"
         id="stop211" />
      <stop
         offset="1"
         id="stop213" />
    </linearGradient>
    <linearGradient
       id="f"
       x1="195.8"
       y1="550.96002"
       x2="-11.6"
       y2="98.419998"
       gradientUnits="userSpaceOnUse">
      <stop
         offset="0"
         stop-color="#fff"
         id="stop216" />
      <stop
         offset="1"
         stop-color="#1a1a1a"
         id="stop218" />
    </linearGradient>
    <linearGradient
       id="a"
       x1="422"
       y1="194.74001"
       x2="256.23999"
       y2="555.47998"
       gradientUnits="userSpaceOnUse">
      <stop
         offset="0"
         stop-color="#fff"
         id="stop221" />
      <stop
         offset="1"
         id="stop223" />
    </linearGradient>
    <linearGradient
       id="g"
       x1="300.69"
       y1="48.040001"
       x2="439.51999"
       y2="48.040001"
       xlink:href="#a"
       gradientTransform="translate(-43.794308,5.1959348)" />
    <linearGradient
       id="h"
       x1="153.48"
       y1="21.889999"
       x2="301.06"
       y2="21.889999"
       gradientUnits="userSpaceOnUse">
      <stop
         offset="0"
         stop-color="#ccc"
         id="stop227" />
      <stop
         offset="1"
         id="stop229" />
    </linearGradient>
  </defs>
  <title
     id="title234">header_logo_1</title>
  <g
     id="g3056"
     transform="scale(1.2778386)"
     style="stroke-width:0.782571">
    <path
       d="M 226,18.6 C 216.8,18.9 179.7,15.6 150.4,0 94.6,38.7 69,53.3 0,71.3 3,130.8 -0.1,399.2 226.6,547.4 l 0.6,0.4 0.2,-0.2 C 454.1,399.4 449.2,130.7 452.1,71.3 383.1,53.3 359.6,38.8 303.8,0 274.6,15.6 235.2,18.9 226,18.6"
       fill="#231f20"
       id="path236"
       style="isolation:isolate;stroke-width:0.612418" />
    <path
       d="M 439.5,80.4 C 373.1,63 354.8,49.6 301.1,12.1 272.9,27.2 237.3,27.2 228.4,26.9 h -2.1 C 217.4,27.2 181.8,27.2 153.5,12.1 99.8,49.6 81.4,63 15.1,80.4 18,137.9 8.7,398.4 226.8,541.8 l 0.6,0.4 0.2,-0.2 C 445.7,398.6 436.7,137.9 439.6,80.4"
       fill="url(#b)"
       id="path238"
       style="isolation:isolate;fill:#ed1c24;fill-opacity:1;stroke-width:0.782571" />
    <path
       style="isolation:isolate;fill:#ffffff;stroke:none;stroke-width:0.782571"
       d="m 298.6,25.7 c -26.5,14.2 -60.2,14.2 -68.5,14 h -2 c -8.4,0.3 -42,0.3 -68.6,-14 -50.7,35.3 -68,48 -130.6,64.4 2.7,54.2 -6,299.8 199.6,434.9 l 0.5,0.4 h 0.2 C 434.9,390.1 426.5,144.3 429.2,90.1 366.6,73.7 349.3,61 298.6,25.7 Z"
       id="path260" />
    <path
       style="isolation:isolate;fill:#ed1c24;fill-opacity:1;stroke:none;stroke-width:0.612418"
       d="m 229.1,502.1 v 0.3 l -0.2,-0.2 -0.5,0.4 v -0.7 C 25.4,374.2 34,142.1 31.3,90.9 93.1,75.4 110.2,63.4 160.2,30 c 26.3,13.5 59.4,13.4 67.7,13.2 h 2 c 8.2,0.2 41.4,0.3 67.7,-13.2 50,33.4 67,45.3 128.8,60.8 -2.7,51.3 5.6,283.6 -197.3,411.3 z"
       id="path536" />
  </g>
  <g
     id="g646"
     transform="scale(1.2778386)"
     style="stroke-width:0.782571">
    <path
       id="path634"
       style="isolation:isolate;mix-blend-mode:multiply;stroke-width:0.782571"
       d="m 218.13672,455.58398 a 7.6,7.6 0 0 0 -0.4375,0.0156 8.5,8.5 0 0 0 -6.39844,2.30078 A 6.8,6.8 0 0 0 209.5,462.5 c 0,3.3 2.5,5.59961 6,5.59961 a 9,9 0 0 0 4.69922,-1.40039 l 0.70117,-0.29883 a 0.3,0.3 0 0 1 0.29883,0.29883 7.8,7.8 0 0 1 -1.59961,3.20117 c -1.8,2.2 -4.30039,3.59883 -7.90039,4.29883 -0.6,0.1 -0.79883,0.2 -0.79883,0.5 0,0.3 0.29922,0.5 0.69922,0.5 a 19.4,19.4 0 0 0 8.09961,-2.5 c 3.89999,-2.2 6.20117,-5.69844 6.20117,-9.39844 l -0.0996,0.0996 a 7.6,7.6 0 0 0 -7.66406,-7.81641 z m -1.33594,0.7168 c 2.8,0 5.29883,2.89961 5.29883,6.09961 l 0.0996,-0.0996 c 0,2.4 -1.29961,3.89844 -4.09961,3.89844 -2.8,0 -5,-3.09961 -5,-5.59961 0,-2.5 0.90117,-4.29883 3.70117,-4.29883 z" />
    <path
       id="path628"
       style="isolation:isolate;mix-blend-mode:multiply;stroke-width:0.782571"
       d="m 246.69922,455.69922 c -4.7,0 -8.29883,3.30118 -8.29883,7.70117 a 6.9,6.9 0 0 0 0.0996,1.19922 c 0.6,2.9 3.4,5.19961 7,5.59961 h 1.30078 c 4.4,0 8.29883,-3.39844 8.29883,-7.39844 0,-3.99999 -3.7004,-7.10156 -8.40039,-7.10156 z m -1.39844,1.40039 A 6,6 0 0 1 250,459.5 a 10.1,10.1 0 0 1 2.09961,5.69922 c 0,1.9 -1.79883,3.30078 -4.29883,3.30078 A 5.8,5.8 0 0 1 243,465.69922 a 9.8,9.8 0 0 1 -1.69922,-5.09961 3.8,3.8 0 0 1 4,-3.5 z" />
    <path
       style="isolation:isolate;mix-blend-mode:multiply;stroke-width:0.782571"
       d="m 212,469.7 c 0,-0.3 -0.3,-0.5 -0.9,-0.5 -2.4,-0.1 -3.2,-0.7 -3.2,-3.1 v -6 c 0,-0.9 0.1,-2.3 0.1,-3.1 0,-0.8 0.1,-0.6 0.1,-0.7 0,-0.1 -0.2,-0.4 -0.5,-0.4 l -0.6,0.3 a 7.5,7.5 0 0 1 -3.8,1.7 c -2.4,0.4 -2.7,0.6 -2.7,1.1 a 0.4,0.4 0 0 0 0.4,0.4 h 0.5 l 1.2,-0.2 a 1.9,1.9 0 0 1 1.1,0.3 l 0.3,0.3 h 0.1 l 0.3,2.7 v 4.5 a 3.3,3.3 0 0 1 0,0.5 l -0.4,0.9 a 2.5,2.5 0 0 1 -1.9,0.8 c -0.8,0 -1.1,0.1 -1.1,0.5 0,0.4 0.2,0.4 0.7,0.4 h 0.8 l 4.2,-0.2 4.3,0.2 h 0.4 c 0.3,0 0.6,-0.2 0.6,-0.4 z"
       id="path626" />
    <path
       style="isolation:isolate;mix-blend-mode:multiply;stroke-width:0.782571"
       d="m 238.8,468.1 c 0,4 -3.9,7 -9.2,7 -2.6,0 -5.7,-0.9 -5.7,-1.7 0,-0.8 0.3,-0.4 0.6,-0.4 l 0.6,0.2 a 8.6,8.6 0 0 0 3.8,0.9 c 2.8,0 5,-1.1 5.9,-2.9 a 4.9,4.9 0 0 0 0.4,-1.5 v -0.2 c 0,-2.2 -2,-3.8 -4.7,-3.8 l -2.5,0.2 h -0.6 c -0.6,0 -1.1,-0.3 -1.1,-0.8 a 9.1,9.1 0 0 1 0.6,-2.1 25.9,25.9 0 0 0 0.9,-5.8 c 0,-0.7 0.1,-0.8 1.2,-0.8 h 6.5 a 2.5,2.5 0 0 0 2.4,-0.9 1,1 0 0 1 0.6,-0.3 c 0.2,0 0.4,0.1 0.4,0.3 a 1,1 0 0 1 -0.2,0.5 l -1,2.5 c -0.2,0.7 -0.3,0.8 -0.9,0.8 h -5.3 c -2,0 -2.3,0.1 -2.6,0.5 a 5.1,5.1 0 0 0 -0.7,2.5 c 0,0.6 0.2,0.9 0.6,0.9 h 0.5 l 2.2,-0.2 c 4.5,-0.1 7.3,1.9 7.3,5.1 z"
       id="path256" />
  </g>
  <g
     id="g1319"
     transform="scale(1.2778386)"
     style="stroke-width:0.782571">
    <path
       id="path1275"
       style="isolation:isolate;mix-blend-mode:multiply;stroke-width:0.782571"
       d="m 148.5,218.5 c -14.69999,0 -27.60001,3.3004 -37,8.90039 -10.59999,6.29999 -17,15.4004 -17,25.90039 a 24.1,24.1 0 0 0 1.800781,9.5 c 3.799999,8.79999 13.398459,15.39962 29.898439,20.59961 l 43.40039,13.69922 c 17.09998,5.39999 23.60078,10.40001 24.30078,18.5 v 2.70117 C 193.00039,330.30077 176.30076,340 157.30078,340 c -23.19998,0 -52.0004,-17.39924 -57.900389,-35.19922 -1.199999,-3 -2.700394,-4.10156 -5.400391,-4.10156 a 4.1,4.1 0 0 0 -4.5,4.40039 c 0,2.8 0.900785,5.20118 4.800781,15.20117 2.099998,5 2.99961,7.39922 3.59961,10.19922 l 1.798828,7 c 14.899981,5.59999 35.300411,9.30078 52.900391,9.30078 a 100.1,100.1 0 0 0 18.20117,-1.60156 62.2,62.2 0 0 0 -18.20117,7.5 c -6.09999,3.7 -10.59961,8.20117 -10.59961,10.20117 0,2 1.09922,1.79883 2.69922,1.79883 a 4.9,4.9 0 0 0 3.20117,-1.39844 c 8.29999,-6.19999 16.49884,-9 26.79883,-9 12.59999,0 21.90039,5.99923 21.90039,14.19922 0,3.6 -1.3,6.29922 -5,10.19922 -3.7,3.89999 -6.09884,5.70001 -22.29883,15 C 139.80081,410.8992 139.5,410.99961 139.5,412.59961 c 0,1.6 1.10039,1.90039 2.90039,1.90039 H 146.5 c 4.73333,-0.33333 9.7004,-0.5 14.90039,-0.5 4.3,0 10.99884,0.1 19.79883,0.5 10.39999,0.3 15.50157,0.5 28.60156,0.5 4.1,0 4.99961,-0.19961 5.59961,-0.59961 0.6,-0.4 2.50001,-2.5004 7.5,-9.90039 l 5.40039,-8.19922 2.09961,-3.40039 c 6.29999,6.69999 16.49884,10.79883 28.79883,10.79883 9.69999,0 16.90118,-1.89962 28.20117,-7.09961 a 10.2,10.2 0 0 1 4.09961,-1.19922 1.5,1.5 0 0 1 1.59961,1.5 c 0,3.3 -4.50001,11.19962 -9.5,16.59961 -10.59999,11.49999 -25.90041,18.6 -47.40039,22 -3.4,0.6 -4.69922,1.19961 -4.69922,2.59961 0,1.4 1.60078,2.30078 4.30078,2.30078 12.79999,0 33.99923,-5.40001 48.69922,-12.5 22.99998,-11.09999 37,-29.20002 37,-48 a 37.6,37.6 0 0 0 -12.5,-28 41.8,41.8 0 0 0 -10.69922,-7 h 7.09961 c 20.79998,0 37.20001,-2.3 49,-7 15.49999,-6.29999 25.19922,-18.0004 25.19922,-30.90039 0,-12.89999 -8.09884,-20.69922 -24.29883,-25.19922 v -0.10156 c -6.69999,-2.2 -12.00118,-3.09844 -23.70117,-4.89844 21.69998,-4.49999 32.80078,-12.8004 32.80078,-24.40039 0,-11.59999 -10.90002,-20.79961 -29,-25.59961 -10.59999,-2.7 -25.2008,-4.20117 -42.80078,-4.20117 -5.6,0 -10.3004,0.20039 -14.40039,0.40039 -27.59997,1.4 -27.59923,1.40039 -40.19922,1.40039 -7.09999,0 -12.60078,-0.20039 -15.30078,-0.40039 l -7.09961,-0.69922 h -0.40039 c -4.7,0 -5.89844,1.79922 -5.89844,3.69922 0,1.9 -0.40116,2.60078 5.79883,3.30078 6.19999,0.7 8.50039,0.99961 10.90039,2.09961 l 3.09961,2.09961 2.09961,50.19922 v 35.40039 c 0,10.09999 -3.49962,15.20039 -12.59961,17.90039 -9.09999,2.7 -8.5,2.70078 -8.5,4.30078 0,1.6 1.80117,2.5 4.70117,2.5 a 67.4,67.4 0 0 0 7.29883,-0.5 c 6.19999,-0.5 15.00079,-0.80039 25.80078,-0.90039 a 42.2,42.2 0 0 0 -13.5,7.90039 c -6.99999,6.29999 -11.09961,14.69845 -11.09961,23.39844 a 25.5,25.5 0 0 0 4.09961,14 5.3,5.3 0 0 0 -1.59961,1.10156 c -4.99999,4.6 -7.4,6.29844 -11.5,7.89844 -4.09999,1.6 -14.40118,3.10156 -23.20117,3.10156 -8.79999,0 -19,-1.40078 -19,-2.80078 0,-1.4 0.50079,-0.9004 8.80078,-5.40039 C 214.50036,374.29963 219,370.9996 219,362.59961 219,351.49962 204.80076,343 186.30078,343 a 66.2,66.2 0 0 0 -11.60156,1 C 197.9992,338.60001 214,324.59959 214,307.59961 c 0,-16.99998 -13.40042,-28.5004 -41.90039,-36.90039 l -32.40039,-9.59961 c -16.29998,-4.8 -24.29883,-10.69884 -24.29883,-17.79883 0,-10.19999 14.49885,-18.70117 31.79883,-18.70117 23.49998,0 48.7004,13.90041 54.90039,30.40039 1.5,3.5 2.99961,4.80078 5.59961,4.80078 2.6,0 3.90039,-1.3 3.90039,-3.5 a 4.4,4.4 0 0 0 -0.29883,-2 c -3,-14.49998 -3.60156,-17.20039 -3.60156,-22.40039 V 230 A 28.6,28.6 0 0 0 208,225.90039 c 0,-1.5 -1.19961,-2.59961 -3.59961,-2.59961 a 9.8,9.8 0 0 0 -3.59961,0.89844 c -4.49999,1.9 -4.50078,1.90039 -6.80078,1.90039 -2.3,0 -3.90001,-0.19883 -12.5,-2.79883 A 116.4,116.4 0 0 0 148.5,218.5 Z m 136.69922,10.40039 c 28.49994,0 49.30078,12.59965 49.30078,29.59961 0,10.99998 -10.49965,17.69922 -27.59961,17.69922 h -24.30078 c -12.86664,0 -19.33372,-3.59885 -19.40039,-10.79883 v -25.80078 c 0,-6.99998 7.30002,-10.69922 22,-10.69922 z m -3.39844,54.5 c 25.09996,0 42.69963,3.10041 53.09961,9.40039 10.39998,6.29998 11.09883,14.99883 11.29883,17.29883 v 0.80078 c 0,6.99998 -3.39844,12.60041 -7.39844,16.90039 A 36.6,36.6 0 0 1 325.19922,335.5 c -6.49998,2.3 -13.60002,3.09961 -23.5,3.09961 v 0.0996 c -30.19994,0 -39.29883,-4.69926 -39.29883,-20.19922 v -27 c 0,-6.49998 4.10043,-8.09961 19.40039,-8.09961 z m -15.20117,60.79883 c 17.09996,0 32,14.5016 32,31.10156 0.1,11.89998 -9.60004,19.69922 -24.5,19.69922 -16.69996,0 -29.79883,-12.50082 -29.79883,-28.80078 0,-12.99998 8.99885,-22 22.29883,-22 z" />
    <path
       id="path546"
       style="isolation:isolate;fill:#ffffff;stroke-width:0.782571"
       d="m 144.90039,215.09961 c -14.69998,0 -27.50001,3.3004 -37,8.90039 -10.599989,6.29999 -16.999999,15.4004 -16.999999,25.90039 a 24.1,24.1 0 0 0 1.798828,9.5 C 96.499215,268.20038 106.09963,274.80001 122.59961,280 l 43.59961,14 C 183.2992,299.39999 189.8,304.40001 190.5,312.5 v 2.69922 c -1.1,11.49999 -17.8008,21.20117 -36.80078,21.20117 -23.19998,0 -51.99844,-17.40119 -57.898439,-35.20117 -1.199999,-3 -2.700393,-4.09961 -5.40039,-4.09961 A 4.1,4.1 0 0 0 86,301.5 c 0,2.8 0.900785,5.19923 4.800781,15.19922 2.099998,4.99999 2.99961,7.40117 3.59961,10.20117 l 1.798828,7 c 14.899981,5.6 35.300411,9.29883 52.900391,9.29883 a 100,100 0 0 0 18.20117,-1.59961 62.1,62.1 0 0 0 -18.20117,7.5 c -6.09999,3.7 -10.59961,8.20117 -10.59961,10.20117 0,2 1.09922,1.79883 2.69922,1.79883 a 4.9,4.9 0 0 0 3.20117,-1.40039 c 8.29999,-6.2 16.49884,-9 26.79883,-9 12.59999,0 21.90039,6.00118 21.90039,14.20117 0,3.6 -1.3,6.29922 -5,10.19922 -3.7,3.9 -6.09884,5.70001 -22.29883,15 C 136.30081,407.29959 136,407.4 136,409 c 0,1.6 1.10039,1.90039 2.90039,1.90039 H 143 c 4.7,-0.3 9.7004,-0.5 14.90039,-0.5 5.2,0 10.99884,0.1 19.79883,0.5 10.39999,0.3 15.50157,0.5 28.60156,0.5 4.1,0 4.99961,-0.19961 5.59961,-0.59961 0.6,-0.4 2.50001,-2.5004 7.5,-9.90039 l 5.40039,-8.20117 2.09961,-3.39844 c 6.29999,6.69999 16.49884,10.79883 28.79883,10.79883 9.69999,0 16.90118,-1.89962 28.20117,-7.09961 A 10.2,10.2 0 0 1 288,391.80078 a 1.5,1.5 0 0 1 1.59961,1.5 c 0,3.3 -4.50001,11.19962 -9.5,16.59961 -10.59999,11.49999 -25.90041,18.6 -47.40039,22 -3.4,0.6 -4.69922,1.19961 -4.69922,2.59961 0,1.4 1.60078,2.30078 4.30078,2.30078 12.79999,0 33.99923,-5.40001 48.69922,-12.5 22.99998,-11.09999 37,-29.20002 37,-48 a 37.6,37.6 0 0 0 -12.40039,-27.90039 41.9,41.9 0 0 0 -10.69922,-7 H 302 c 20.79998,0 37.20001,-2.3 49,-7 15.49998,-6.29999 25.19922,-18.0004 25.19922,-30.90039 0,-12.89999 -8.29845,-20.80079 -24.39844,-25.30078 h -0.10156 c -6.69999,-2.2 -11.99923,-3.09844 -23.69922,-4.89844 21.69998,-4.49999 32.80078,-12.8004 32.80078,-24.40039 0,-11.59999 -10.90002,-20.79961 -29,-25.59961 -10.59999,-2.7 -25.2008,-4.10156 -42.80078,-4.10156 -5.59999,0 -10.30039,0.20039 -14.40039,0.40039 -27.59997,1.4 -27.59923,1.40039 -40.19922,1.40039 -6.99999,0 -12.60078,-0.20039 -15.30078,-0.40039 L 212,219.90039 h -0.40039 c -4.7,0 -5.90039,1.79922 -5.90039,3.69922 0,1.9 -0.39921,2.60078 5.80078,3.30078 6.19999,0.7 8.50039,0.99961 10.90039,2.09961 l 3.09961,2.09961 2.09961,50.20117 v 35.39844 c 0,10.09999 -3.49962,15.20039 -12.59961,17.90039 -9.09999,2.7 -8.5,2.70078 -8.5,4.30078 0,1.6 1.79922,2.5 4.69922,2.5 a 67.3,67.3 0 0 0 7.30078,-0.5 c 6.19999,-0.5 15.00079,-0.80039 25.80078,-0.90039 a 42.3,42.3 0 0 0 -13.5,7.90039 c -6.99999,6.29999 -11.10156,14.7004 -11.10156,23.40039 a 25.5,25.5 0 0 0 4.10156,14 5.3,5.3 0 0 0 -1.60156,1.09961 c -5,4.6 -7.40001,6.30039 -11.5,7.90039 -4.1,1.6 -14.39923,3.09961 -23.19922,3.09961 -8.79999,0 -19,-1.40078 -19,-2.80078 0,-1.4 0.50079,-0.9004 8.80078,-5.40039 33.59997,-18.29998 38.09961,-21.60001 38.09961,-30 0,-11.09999 -14.20119,-19.59961 -32.70117,-19.59961 a 66.2,66.2 0 0 0 -11.59961,1 c 23.29998,-5.4 39.30078,-19.40041 39.30078,-36.40039 0,-16.99998 -13.40042,-28.49845 -41.90039,-36.89844 l -32.40039,-9.60156 c -16.29998,-4.8 -24.29883,-10.69884 -24.29883,-17.79883 0,-10.19999 14.49885,-18.70117 31.79883,-18.70117 23.49998,0 48.7004,13.90041 54.90039,30.40039 1.5,3.5 2.99961,4.80078 5.59961,4.80078 2.6,0 3.90039,-1.3 3.90039,-3.5 a 4.4,4.4 0 0 0 -0.30078,-2 c -3,-14.49998 -3.59961,-17.2004 -3.59961,-22.40039 v -1.90039 A 28.4,28.4 0 0 0 204.40039,222.5 c 0,-1.5 -1.19961,-2.59961 -3.59961,-2.59961 a 9.9,9.9 0 0 0 -3.60156,0.90039 c -4.5,1.9 -4.49883,1.89844 -6.79883,1.89844 -2.3,0 -3.90001,-0.19883 -12.5,-2.79883 a 116.4,116.4 0 0 0 -33,-4.80078 z m 136.69922,10.30078 c 28.49994,0 49.30078,12.59965 49.30078,29.59961 0,10.99998 -10.49965,17.69922 -27.59961,17.69922 H 279 c -12.86664,0 -19.33372,-3.59885 -19.40039,-10.79883 v -25.80078 c 0,-6.99998 7.40002,-10.69922 22,-10.69922 z m -3.40039,54.5 c 25.09994,0 42.70158,3.10041 53.10156,9.40039 10.39998,6.29998 11.09883,14.99883 11.29883,17.29883 v 0.80078 c 0,6.99998 -3.40041,12.60041 -7.40039,16.90039 A 36.6,36.6 0 0 1 321.59961,332 c -6.49998,2.2 -13.50002,3.09961 -23.5,3.09961 V 335 c -30.19994,0 -39.29883,-4.69924 -39.29883,-20.19922 V 288 c 0,-6.49998 4.09846,-8.09961 19.39844,-8.09961 z M 263,340.5 c 17.09996,0 32,14.49965 32,31.09961 0.1,12.09998 -9.60002,19.80078 -24.5,19.80078 v -0.0996 c -16.69996,0 -29.80078,-12.50082 -29.80078,-28.80078 0,-12.99998 9.0008,-22 22.30078,-22 z" />
  </g>
  <g
     id="g1313"
     transform="scale(1.2778386)"
     style="stroke-width:0.782571">
    <g
       id="g1289"
       style="stroke-width:0.782571">
      <path
         style="isolation:isolate;mix-blend-mode:multiply;stroke-width:0.782571"
         d="m 250.3,101.9 v -0.2 h -0.1 v -0.6 a 8.3,8.3 0 0 1 0.4,-1.5 c 4,-12.4 19.9,-3.1 19.9,-3.1 a 104.2,104.2 0 0 0 14.6,7 h -0.4 a 104.8,104.8 0 0 0 -14.4,4.9 c 0,0 -15.6,6.8 -19.6,-4.3 a 3.7,3.7 0 0 1 -0.5,-1.8 V 102 Z"
         id="path1273" />
      <path
         style="isolation:isolate;mix-blend-mode:multiply;stroke-width:0.782571"
         d="M 233.3,67.6 A 96.3,96.3 0 0 0 239.1,54 v -0.3 a 96.4,96.4 0 0 0 6.4,14.5 c 0,0 8.7,15.8 -4.2,19 l -1.7,0.3 h -1.3 A 4,4 0 0 1 236.6,87 c -11.2,-4.5 -3.3,-19.3 -3.3,-19.3 z"
         id="path1271" />
      <path
         style="isolation:isolate;mix-blend-mode:multiply;stroke-width:0.782571"
         d="m 194.1,99.2 h -0.3 a 95.5,95.5 0 0 0 14.7,-5.6 c 0,0 15.7,-7.7 19.7,4.6 a 9.1,9.1 0 0 1 0.5,2.2 v 0.5 h 0.1 v 0.4 a 3.6,3.6 0 0 1 -0.6,1.8 c -4.2,10.5 -19.7,2.3 -19.7,2.3 a 114.7,114.7 0 0 0 -14.4,-6.1 z"
         id="path1269" />
      <path
         style="isolation:isolate;mix-blend-mode:multiply;stroke-width:0.782571"
         d="m 239.1,97.1 v 0.4 c 0.5,9.8 4.5,52.7 32,76.6 -20.1,-1.3 -30.2,25.9 -32.7,33.6 v 0.2 l -0.5,1.8 C 232.5,180.8 218,173.6 210,171.8 l -6.8,-0.3 c 30.2,-21.4 35.1,-63.7 35.8,-72.6 v -3.4 c 0,0 0,0.7 0.1,1.9 z"
         id="path258" />
    </g>
    <g
       id="g562"
       style="fill:#ffffff;stroke-width:0.782571">
      <path
         style="isolation:isolate;fill:#ffffff;stroke-width:0.782571"
         d="m 246.7,98.4 v -0.2 h -0.1 c 0,-0.2 0.1,-0.4 0.1,-0.6 a 8.3,8.3 0 0 1 0.4,-1.5 C 251.2,83.7 267,93 267,93 a 104,104 0 0 0 14.6,7 h -0.4 a 104.4,104.4 0 0 0 -14.4,4.9 c 0,0 -15.6,6.8 -19.6,-4.3 a 3.7,3.7 0 0 1 -0.5,-1.8 z"
         id="path544" />
      <path
         style="isolation:isolate;fill:#ffffff;stroke-width:0.782571"
         d="m 229.7,64.1 a 97,97 0 0 0 5.8,-13.8 V 50 a 96.6,96.6 0 0 0 6.5,14.6 c 0,0 8.7,15.8 -4.2,19.1 l -1.7,0.3 h -1.3 a 4,4 0 0 1 -1.7,-0.5 c -11.2,-4.6 -3.4,-19.4 -3.4,-19.4 z"
         id="path542" />
      <path
         style="isolation:isolate;fill:#ffffff;stroke-width:0.782571"
         d="m 190.5,95.6 h -0.3 A 95.2,95.2 0 0 0 204.9,90 c 0,0 15.7,-7.6 19.7,4.6 a 9.2,9.2 0 0 1 0.5,2.2 v 0.5 h 0.1 v 0.4 a 3.6,3.6 0 0 1 -0.6,1.8 C 220.4,110.2 205,102 205,102 a 114.8,114.8 0 0 0 -14.4,-6.3 z"
         id="path540" />
      <path
         style="isolation:isolate;fill:#ffffff;stroke-width:0.782571"
         d="M 235.5,93.5 V 94 c 0.5,9.8 4.5,52.7 32,76.6 -20.1,-1.3 -30.2,25.9 -32.7,33.6 v 0.2 l -0.5,1.8 c -5.4,-28.9 -19.9,-36.1 -27.9,-37.9 l -6.8,-0.3 c 30.2,-21.4 35.1,-63.7 35.8,-72.6 v -3.5 c 0,0 0,0.7 0.1,1.9 z"
         id="path538" />
    </g>
  </g>
</svg>
